<?xml version="1.0" encoding="utf-8"?>
<!-- Generator: Adobe Illustrator 20.1.0, SVG Export Plug-In . SVG Version: 6.00 Build 0)  -->
<svg version="1.1" id="Layer_1" xmlns="http://www.w3.org/2000/svg" xmlns:xlink="http://www.w3.org/1999/xlink" x="0px" y="0px"
	 viewBox="0 0 200 200" style="enable-background:new 0 0 200 200;" xml:space="preserve">
<style type="text/css">
	.st0{display:none;}
	.st1{display:inline;fill:none;}
	.st2{fill:none;}
	.st3{display:inline;}
	.st4{fill:#FFFFFF;}
	.st5{display:none;fill:none;stroke:#FFFFFF;stroke-width:2.5;stroke-miterlimit:10;}
	.st6{display:inline;fill:none;stroke:#FFFFFF;stroke-width:2.5;stroke-miterlimit:10;}
	.st7{fill:none;stroke:#FFFFFF;stroke-width:2.5;stroke-linecap:round;stroke-linejoin:round;stroke-miterlimit:10;}
	.st8{display:inline;fill:none;stroke:#FFFFFF;stroke-width:2.5;stroke-linecap:round;stroke-linejoin:round;stroke-miterlimit:10;}
	.st9{display:inline;fill:#FFFFFF;}
</style>
<g class="st0">
</g>
<g class="st0">
	<line class="st1" x1="32.4" y1="57.5" x2="20.6" y2="57.5"/>
</g>
<line class="st2" x1="0" y1="0" x2="15.4" y2="0"/>
<g>
	<g>
	</g>
</g>
<g class="st0">
	<g class="st3">
		<g>
			<path class="st4" d="M183.8,142.6H15.8v-98c0-3.2,2.6-5.8,5.8-5.8H178c3.2,0,5.8,2.6,5.8,5.8V142.6z M18.3,140.1h162.9V44.6
				c0-1.8-1.5-3.3-3.3-3.3H21.6c-1.8,0-3.3,1.5-3.3,3.3V140.1z"/>
		</g>
		<g>
			<path class="st4" d="M178.4,162.1h-156c-3.3,0-6.7-3.5-6.7-6.9V140h168.2v15.4C183.9,158.7,181.8,162.1,178.4,162.1z M18.2,142.5
				v12.7c0,2.1,2.2,4.4,4.2,4.4h156c1.9,0,3-2.1,3-4.2v-12.9H18.2z"/>
		</g>
		<g>
			<path class="st4" d="M125.3,183.7c-2-0.9-3.5-1.6-4.4-2.1l-0.1-0.1c-2.1-1.2-2.6-1.8-3.3-5.4c-0.5-2.4-0.4-6.2-0.4-9.6
				c0-1.5,0-3,0-4.2l-34.3-0.2c0,1.2,0,2.7,0,4.3c0,3.4,0.1,7.2-0.4,9.7c-0.7,3.5-1.3,4.2-3.4,5.3l-0.2,0.1c-1.2,0.7-3.2,1.6-4.4,2
				l-1-2.3c1.1-0.5,3-1.3,4.1-1.9l0.2-0.1c1.4-0.8,1.6-0.9,2.1-3.6c0.4-2.2,0.4-5.9,0.3-9.1c0-2.2-0.1-4.3,0.1-5.7l0.1-1.2l39,0.2
				l0.1,1.1c0.1,1.4,0.1,3.4,0.1,5.6c0,3.2-0.1,6.9,0.3,9c0.6,2.8,0.6,2.8,2.1,3.7l0.1,0.1c0.8,0.4,2.3,1.1,4.2,2L125.3,183.7z"/>
		</g>
		<g>
			<rect x="69.2" y="181.3" class="st4" width="61.2" height="2.5"/>
		</g>
	</g>
	<g class="st3">
		<g>
			<g>
				<path class="st4" d="M93,142.2H79.4c-0.7,0-1.3-0.6-1.3-1.3V79.2c0-0.7,0.6-1.3,1.3-1.3s1.3,0.6,1.3,1.3v60.5h11.1V79.2
					c0-0.7,0.6-1.3,1.3-1.3s1.3,0.6,1.3,1.3V141C94.2,141.7,93.7,142.2,93,142.2z"/>
			</g>
		</g>
		<g>
			<path class="st4" d="M86.2,81.6c-2.5,0-4.8-0.3-7.1-1c-0.3-0.1-0.6-0.3-0.8-0.6s-0.2-0.7,0-1L85,61.4c0.2-0.5,0.6-0.8,1.2-0.8
				s1,0.3,1.2,0.8l6.8,17.6c0.1,0.3,0.1,0.7,0,1c-0.2,0.3-0.4,0.5-0.8,0.6C91.1,81.3,88.7,81.6,86.2,81.6z M81.1,78.5
				c3.3,0.8,6.9,0.8,10.2,0l-5.1-13.3L81.1,78.5z"/>
		</g>
		<g>
			<path class="st4" d="M86.1,68.9c-0.8,0-1.5-0.1-2.2-0.1l-1.7-0.1l4-10.3l4,10.3l-1.6,0.2C87.7,68.9,86.9,68.9,86.1,68.9z
				 M85.8,66.4c0.3,0,0.6,0,0.9,0l-0.4-1.1L85.8,66.4z"/>
		</g>
	</g>
	<g class="st3">
		<g>
			<path class="st4" d="M67.8,142.2H37V55.7h30.8V142.2z M39.5,139.7h25.8V58.2H39.5V139.7z"/>
		</g>
		<g>
			<rect x="53.7" y="67.7" class="st4" width="11.2" height="2.5"/>
		</g>
		<g>
			<rect x="58.8" y="79.7" class="st4" width="6" height="2.5"/>
		</g>
		<g>
			<rect x="53.7" y="91.7" class="st4" width="11.2" height="2.5"/>
		</g>
		<g>
			<rect x="58.8" y="103.7" class="st4" width="6" height="2.5"/>
		</g>
		<g>
			<rect x="53.7" y="115.7" class="st4" width="11.2" height="2.5"/>
		</g>
		<g>
			<rect x="58.8" y="127.7" class="st4" width="6" height="2.5"/>
		</g>
	</g>
	<g class="st3">
		<g>
			<rect x="117.4" y="55.7" class="st4" width="2.5" height="9.6"/>
		</g>
		<g>
			
				<rect x="104.2" y="64" transform="matrix(0.5004 -0.8658 0.8658 0.5004 -6.8898 125.6936)" class="st4" width="2.5" height="9.6"/>
		</g>
		<g>
			<rect x="101.2" y="83.1" transform="matrix(0.866 -0.5 0.5 0.866 -27.9841 64.3183)" class="st4" width="9.6" height="2.5"/>
		</g>
		<g>
			<rect x="118.5" y="86.9" class="st4" width="2.5" height="9.6"/>
		</g>
		<g>
			<rect x="127.6" y="66.6" transform="matrix(0.866 -0.5 0.5 0.866 -16.1782 75.2972)" class="st4" width="9.6" height="2.5"/>
		</g>
		<g>
			<g>
				
					<rect x="154.7" y="99.8" transform="matrix(0.707 -0.7072 0.7072 0.707 -31.7105 142.3951)" class="st4" width="2.5" height="19.3"/>
			</g>
			<g>
				<path class="st4" d="M141.1,121l-19.3-45.7l45.7,19.3l-18.4,8L141.1,121z M126.5,80l14.7,34.7l6.1-13.9l13.9-6.1L126.5,80z"/>
			</g>
		</g>
	</g>
</g>
<g>
	<g>
	</g>
</g>
<g>
	<g>
		<path class="st4" d="M89.7,183.9H25.5c-0.7,0-1.3-0.6-1.3-1.3v-12.3c0-0.2,0-0.4,0.1-0.5c0.1-0.3,3-6.3,6.9-8.6
			c0.2-0.1,0.5-0.3,0.7-0.4l0.5-0.3c0.4-0.2,0.8-0.4,1.1-0.6l0.1,0c0.4-0.2,0.8-0.3,1.2-0.5l1.1-0.4c0.3-0.1,0.7-0.1,1.1,0
			c0.3,0.2,0.6,0.5,0.6,0.8l0.2,1.1c0,0.2,0.1,0.3,0.1,0.4l0.1,0.3c0.1,0.2,0.1,0.3,0.2,0.5c0,0.1,0.1,0.2,0.1,0.2l0.1,0.3
			c0.1,0.3,0.2,0.4,0.3,0.6c0.1,0.1,0.1,0.3,0.2,0.4l0.1,0.2c0.1,0.2,0.2,0.3,0.3,0.5c0.1,0.1,0.2,0.3,0.3,0.4
			c0.2,0.3,0.3,0.4,0.5,0.6c0.1,0.2,0.3,0.3,0.4,0.5c0.2,0.2,0.3,0.3,0.5,0.5c0.2,0.2,0.4,0.3,0.5,0.5c0.2,0.2,0.4,0.3,0.6,0.5
			c0.2,0.1,0.3,0.3,0.5,0.4c0.2,0.2,0.4,0.3,0.7,0.5l0.2,0.1c0.1,0.1,0.3,0.2,0.4,0.3c0.2,0.2,0.5,0.3,0.7,0.4l0.2,0.1
			c0.1,0.1,0.3,0.2,0.4,0.2c0.2,0.1,0.5,0.3,0.8,0.4l0.2,0.1c0.2,0.1,0.4,0.2,0.5,0.2c0.3,0.1,0.5,0.2,0.8,0.3l0.2,0.1
			c0.2,0.1,0.4,0.2,0.6,0.2c0.3,0.1,0.5,0.2,0.8,0.3l0.4,0.1c0.1,0,0.3,0.1,0.4,0.1c0.3,0.1,0.6,0.2,0.9,0.2l0.4,0.1
			c0.2,0,0.3,0.1,0.5,0.1c0.2,0,0.4,0.1,0.7,0.1l0.7,0.1c0.2,0,0.3,0.1,0.4,0.1c0.3,0,0.7,0.1,1.1,0.1l0.7,0.1
			c1.4,0.1,2.6,0.1,3.9,0l0.8-0.1c0.4,0,0.7-0.1,1.1-0.1l0.9-0.2c0.3,0,0.6-0.1,0.9-0.2c0.1,0,0.3-0.1,0.4-0.1l0.7-0.2
			c0.2,0,0.4-0.1,0.6-0.2l1.1-0.3c0.2-0.1,0.4-0.1,0.6-0.2c0.2-0.1,0.4-0.1,0.6-0.2l0.1,0c0.3-0.1,0.6-0.2,0.8-0.3
			c0.2-0.1,0.4-0.2,0.6-0.3l0.1,0c0.3-0.1,0.6-0.3,0.8-0.4c0.1-0.1,0.3-0.2,0.5-0.3l0.3-0.2c0.2-0.1,0.4-0.2,0.6-0.4
			c0.1-0.1,0.3-0.2,0.4-0.3l0.1-0.1c0.2-0.1,0.4-0.3,0.6-0.5c0.2-0.1,0.4-0.3,0.5-0.4c0.2-0.2,0.4-0.3,0.6-0.5
			c0.2-0.2,0.3-0.3,0.5-0.5c0.2-0.2,0.3-0.3,0.5-0.5c0.1-0.2,0.3-0.3,0.4-0.5c0.1-0.2,0.3-0.4,0.4-0.6c0.1-0.2,0.2-0.3,0.4-0.5
			c0.1-0.2,0.2-0.4,0.3-0.6l0.1-0.1c0.1-0.1,0.1-0.2,0.2-0.4c0.1-0.2,0.2-0.4,0.3-0.6l0.1-0.2c0-0.1,0.1-0.2,0.1-0.3
			c0.1-0.2,0.1-0.4,0.2-0.6l0.1-0.3c0,0,0-0.1,0-0.1c0-0.1,0-0.2,0.1-0.2l0.1-0.2l0.2-1c0.1-0.4,0.3-0.7,0.6-0.9
			c0.3-0.2,0.7-0.2,1.1,0l1.8,0.8c0.5,0.2,0.9,0.4,1.4,0.6l0.9,0.5c0.2,0.1,0.4,0.2,0.6,0.3c3.8,2.2,7.5,7.7,7.7,8
			c0.1,0.2,0.2,0.4,0.2,0.7v12.7C90.9,183.4,90.3,183.9,89.7,183.9z M26.7,181.4h61.7v-11.1c-0.8-1.2-3.8-5.3-6.6-6.9
			c-0.2-0.1-0.4-0.2-0.6-0.3l-0.8-0.4c-0.4-0.2-0.8-0.4-1.3-0.6l-0.4-0.2c0,0,0,0.1,0,0.2l-0.1,0.3c-0.1,0.3-0.1,0.5-0.2,0.8
			c-0.1,0.1-0.1,0.3-0.2,0.5l-0.1,0.2c-0.1,0.2-0.2,0.5-0.3,0.7c-0.1,0.2-0.2,0.3-0.3,0.5l-0.1,0.1c-0.1,0.3-0.3,0.5-0.4,0.7
			c-0.1,0.2-0.3,0.4-0.4,0.6c-0.2,0.2-0.3,0.4-0.5,0.7c-0.2,0.2-0.3,0.4-0.5,0.6c-0.2,0.2-0.4,0.4-0.6,0.6c-0.2,0.2-0.4,0.4-0.6,0.5
			c-0.2,0.2-0.4,0.4-0.7,0.6c-0.2,0.2-0.4,0.3-0.6,0.5c-0.2,0.2-0.5,0.4-0.7,0.5l-0.2,0.1c-0.2,0.1-0.3,0.2-0.5,0.3
			c-0.2,0.1-0.4,0.3-0.7,0.4l-0.3,0.2c-0.2,0.1-0.4,0.2-0.5,0.3c-0.3,0.2-0.6,0.3-0.9,0.4l-0.1,0c-0.2,0.1-0.4,0.2-0.7,0.3
			c-0.3,0.1-0.6,0.3-0.9,0.4l-0.1,0c-0.2,0.1-0.4,0.2-0.7,0.3c-0.2,0.1-0.5,0.2-0.7,0.2l-1.1,0.4c-0.2,0.1-0.5,0.1-0.7,0.2l-0.7,0.2
			c-0.2,0.1-0.4,0.1-0.6,0.1c-0.3,0.1-0.7,0.1-1,0.2l-1,0.2c-0.4,0.1-0.8,0.1-1.2,0.1l-0.8,0.1c-1.5,0.1-2.8,0.1-4.2,0
			c0,0-0.1,0-0.1,0c-0.1,0-0.2,0-0.3,0l-0.4,0c-0.4,0-0.8-0.1-1.2-0.1c-0.2,0-0.4-0.1-0.5-0.1l-0.7-0.1c-0.2,0-0.5-0.1-0.7-0.1
			c-0.2,0-0.3-0.1-0.5-0.1l-0.4-0.1c-0.3-0.1-0.7-0.2-1-0.2c-0.2,0-0.3-0.1-0.5-0.2l-0.4-0.1c-0.3-0.1-0.6-0.2-0.9-0.3
			c-0.2-0.1-0.5-0.2-0.7-0.3l-0.2-0.1c-0.3-0.1-0.6-0.2-0.9-0.4c-0.2-0.1-0.4-0.2-0.6-0.3l-0.1-0.1c-0.3-0.1-0.6-0.3-0.9-0.4
			c-0.2-0.1-0.3-0.2-0.5-0.3l-0.2-0.1c-0.3-0.2-0.5-0.3-0.8-0.5c-0.2-0.1-0.3-0.2-0.5-0.3l-0.2-0.1c-0.3-0.2-0.5-0.4-0.8-0.6
			c-0.2-0.1-0.4-0.3-0.6-0.5c-0.2-0.2-0.5-0.4-0.7-0.6c-0.2-0.2-0.4-0.3-0.5-0.5c0,0-0.1-0.1-0.1-0.1c-0.2-0.2-0.3-0.4-0.5-0.6
			c-0.2-0.2-0.3-0.4-0.5-0.5c-0.2-0.2-0.4-0.5-0.6-0.7c-0.1-0.2-0.3-0.4-0.4-0.5c-0.1-0.2-0.2-0.4-0.3-0.6l-0.2-0.3
			c-0.1-0.1-0.2-0.3-0.3-0.5c-0.1-0.2-0.2-0.4-0.3-0.7l-0.1-0.4c-0.1-0.1-0.1-0.2-0.1-0.4c-0.1-0.2-0.1-0.4-0.2-0.6l-0.1-0.3
			c0-0.1,0-0.2-0.1-0.3c-0.3,0.1-0.5,0.2-0.8,0.3l0,0c-0.4,0.2-0.7,0.4-1.1,0.5l-0.5,0.2c-0.2,0.1-0.4,0.2-0.6,0.3
			c-2.8,1.6-5.2,6.1-5.8,7.2V181.4z"/>
	</g>
	<g>
		<path class="st4" d="M31.2,163.9c-0.2,0-0.5-0.1-0.7-0.2c-0.4-0.3-0.6-0.7-0.5-1.2l5.6-37.4c2.1-11.7,11-20.2,21.3-20.2
			c10.3,0,19.2,8.5,21.3,20.1l0.1,0.9c1.8,12.2,3.7,24.3,5.5,36.5c0.1,0.5-0.1,1-0.5,1.2c-0.4,0.3-0.9,0.3-1.3,0
			c-2-1.2-4.4-2.2-7.2-3.1c0,0-0.1,0-0.1,0c0,0-0.1,0-0.1,0c-0.4-0.1-0.8-0.2-1.2-0.3l-0.1,0c-0.4-0.1-0.8-0.2-1.2-0.3l-0.2,0
			c0,0,0,0-0.1,0c-1.9-0.5-4-0.8-6.1-1.1c-0.3,0-0.6-0.2-0.8-0.5c-0.2-0.3-0.3-0.6-0.2-0.9c0.1-0.6,0.1-1.1,0.1-1.5v-5.1
			c-2.4,1.4-5,2.1-7.8,2.1c-2.8,0-5.5-0.7-7.9-2.1v5.1c0,0.5,0,1,0.1,1.6c0,0.3,0,0.7-0.2,0.9s-0.5,0.4-0.8,0.5
			c-2.1,0.3-4.2,0.7-6,1.1c0,0-0.1,0-0.1,0c-0.4,0.1-0.9,0.2-1.3,0.3c-0.1,0-0.2,0.1-0.3,0.1c-0.4,0.1-0.7,0.2-1.1,0.3l-0.1,0
			c-0.1,0-0.2,0.1-0.3,0.1l-1.3,0.4c-2.2,0.8-4.1,1.6-5.7,2.6C31.7,163.8,31.4,163.9,31.2,163.9z M67.2,156.4c1.8,0.3,3.5,0.6,5.1,1
			l0.3,0.1c0.4,0.1,0.8,0.2,1.2,0.3l0.2,0.1c0.4,0.1,0.8,0.2,1.2,0.4c0,0,0.1,0,0.2,0.1c2.1,0.6,3.9,1.4,5.6,2.2
			c-1.7-11.3-3.4-22.7-5.1-34l-0.1-0.9c-2.1-11.8-11.1-18-18.8-18c-7.8,0-16.7,6.2-18.8,18.1l-5.2,34.9c1.2-0.6,2.5-1.1,3.9-1.6
			l0.4-0.1c0,0,0,0,0.1,0l1-0.3c0.1,0,0.2-0.1,0.2-0.1l0.1,0c0.4-0.1,0.8-0.2,1.2-0.3l0.1,0c0,0,0.1,0,0.1,0
			c0.4-0.1,0.9-0.2,1.3-0.3l0.1,0c1.6-0.4,3.3-0.7,5.1-1c0-0.2,0-0.5,0-0.7v-7.4c0-0.5,0.3-0.9,0.7-1.1c0.4-0.2,1-0.1,1.3,0.2
			c2.3,1.9,5.3,2.9,8.3,2.9c3.1,0,5.9-1,8.3-2.9c0.4-0.3,0.9-0.4,1.3-0.2c0.4,0.2,0.7,0.6,0.7,1.1v7.4
			C67.2,155.9,67.2,156.1,67.2,156.4z"/>
	</g>
	<g>
		<path class="st4" d="M56.9,175c-11.5,0-21.1-6.5-21.9-14.7c-0.1-0.6,0.3-1.1,0.8-1.3c3.2-1.2,6.8-2.1,10.8-2.7c0-0.2,0-0.5,0-0.7
			v-7.4c0-0.5,0.3-0.9,0.7-1.1c0.4-0.2,1-0.1,1.3,0.2c2.3,1.9,5.3,2.9,8.3,2.9c3.1,0,5.9-1,8.3-2.9c0.4-0.3,0.9-0.4,1.3-0.2
			c0.4,0.2,0.7,0.6,0.7,1.1v7.4c0,0.2,0,0.4,0,0.7c3.9,0.6,7.5,1.5,10.8,2.7c0.5,0.2,0.9,0.7,0.8,1.3C78,168.6,68.4,175,56.9,175z
			 M37.6,161.1c1.3,6.5,9.5,11.5,19.3,11.5c9.8,0,18-5,19.3-11.5c-3.1-1.1-6.6-1.9-10.5-2.4c-0.3,0-0.6-0.2-0.8-0.5
			c-0.2-0.3-0.3-0.6-0.2-0.9c0.1-0.6,0.1-1.1,0.1-1.6v-5.1c-2.4,1.4-5,2.1-7.8,2.1c-2.8,0-5.5-0.7-7.9-2.1v5.1c0,0.5,0,1,0.1,1.6
			c0,0.3,0,0.7-0.2,0.9s-0.5,0.4-0.8,0.5C44.3,159.2,40.7,160,37.6,161.1z"/>
	</g>
	<g>
		<path class="st4" d="M71.5,128.6h-35c-0.4,0-0.7-0.2-0.9-0.4c-0.2-0.3-0.3-0.6-0.3-1l0-0.3c0.1-0.6,0.2-1.2,0.3-1.8
			c2.1-11.7,11-20.1,21.3-20.1c10.3,0,19.2,8.5,21.3,20.1c0.1,0.6,0.2,1.2,0.3,1.9l0,0.3l-2.5,0.4l0-0.3c-0.1-0.6-0.2-1.2-0.3-1.8
			c-2.1-11.8-11.1-18-18.8-18c-7.8,0-16.7,6.2-18.8,18.1c0,0.2-0.1,0.4-0.1,0.6h33.5V128.6z"/>
	</g>
	<g>
		<path class="st4" d="M56.9,152.7c-8.7,0-15.7-7.1-15.7-15.7v-9.7c0-0.7,0.6-1.3,1.3-1.3h29c0.7,0,1.3,0.6,1.3,1.3v9.7
			C72.6,145.7,65.6,152.7,56.9,152.7z M43.7,128.6v8.4c0,7.3,5.9,13.2,13.2,13.2s13.2-5.9,13.2-13.2v-8.4H43.7z"/>
	</g>
	<g>
		<g>
			<path class="st4" d="M168.6,183.9H99.2l0-1.2c0-1.1-0.3-13.3,0-15.5c0.1-2.5,2.8-4.9,6.2-5.6c6.9-1.3,13.3-2.1,19.4-2.6l0.2,2.5
				c-6,0.4-12.3,1.2-19.1,2.5c-2.4,0.5-4.2,2.1-4.2,3.2l0,0.1l0,0.1c-0.2,1.3-0.1,10.4,0,13.9h64.6c0.1-3.5,0.2-12.6,0-13.9l0-0.2
				c0-1.1-1.8-2.8-4.2-3.2c-7.2-1.4-13.7-2.2-20-2.6l0.2-2.5c6.4,0.4,13,1.3,20.3,2.6c3.5,0.7,6.2,3.1,6.2,5.6
				c0.3,2.2,0,14.6,0,15.5L168.6,183.9z"/>
		</g>
		<g>
			<g>
				<path class="st4" d="M132.7,173.6l-8.7-7.7l-0.1-0.5c-0.1-0.9-0.3-2.7-0.4-4.5c-0.1-1.4-0.2-2.9-0.3-3.8c-1.7-1.3-2.9-3-3-4.5
					c-0.1-1.1-0.3-2.2-0.4-3.3c-0.6,0-1.2-0.2-1.7-0.6c-0.6-0.5-0.9-1.1-1-1.8l-0.8-7.5c-0.1-0.7,0.1-1.4,0.6-2
					c0.4-0.4,0.8-0.7,1.3-0.9c0-0.4-0.1-0.9-0.1-1.3l-0.2-1.6c0-0.3,0-0.5-0.1-0.7c-0.2-2.4-0.7-7.5,3.2-10.9c6-5.9,18.7-5.9,24.7,0
					c3.8,3.4,3.3,8.5,3.1,10.9c0,0.3,0,0.5-0.1,0.7c-0.1,1-0.2,1.9-0.3,2.9c0.5,0.1,1,0.5,1.3,0.9c0.5,0.6,0.7,1.2,0.6,2l-0.8,7.6
					c-0.1,1.4-1.3,2.4-2.6,2.4c-0.1,1.1-0.3,2.2-0.4,3.3c-0.1,1.5-1.3,3.2-3,4.5c-0.1,0.9-0.2,2.4-0.3,3.8c-0.1,1.9-0.3,3.6-0.4,4.5
					l-0.1,0.5L132.7,173.6z M126.3,164.6l6.5,5.8l7.8-5.8c0.1-0.9,0.2-2.4,0.3-3.8c0.1-1.8,0.3-3.6,0.4-4.5l0.1-0.6l0.5-0.3
					c1.5-1,2.3-2.2,2.4-3c0.2-1.7,0.4-3.3,0.6-4.9l0.3-2.7l1.8,1.9c0.1,0.1,0.1,0.1,0.1,0.1c0.1,0,0.2-0.1,0.2-0.2l0.8-7.5
					c0-0.1-0.1-0.2-0.2-0.2l-2.1,1.2l0.2-2.4c0.2-1.4,0.3-2.9,0.5-4.3c0-0.2,0-0.4,0.1-0.7c0.2-2.2,0.6-6.2-2.3-8.8
					c-5-4.9-16.4-4.9-21.3,0c-3,2.7-2.6,6.7-2.4,8.9c0,0.3,0,0.5,0.1,0.8l0.2,1.5c0.1,0.9,0.2,1.8,0.3,2.8l0.3,2.4l-2.1-1.2
					c-0.1,0-0.2,0-0.2,0c0,0,0,0.1,0,0.1l0.8,7.6c0,0.1,0,0.1,0.1,0.1c0,0,0.1,0,0.1,0c0,0,0.1,0,0.1-0.1l1.8-1.9l0.3,2.7
					c0.2,1.6,0.4,3.3,0.6,4.9c0.1,0.8,0.9,2.1,2.4,3l0.5,0.3l0.1,0.6c0.1,0.9,0.3,2.7,0.4,4.5C126.1,162.2,126.2,163.7,126.3,164.6z
					"/>
			</g>
			<g>
				<path class="st4" d="M132.8,173.2c-0.3,0-0.6-0.1-0.8-0.3l-7.6-6.8c-0.2-0.2-0.4-0.5-0.4-0.8c-0.1-0.9-0.3-2.7-0.4-4.5
					c-0.1-1.4-0.2-2.9-0.3-3.8c-1.7-1.3-2.9-3-3-4.5c-0.1-1.1-0.3-2.2-0.4-3.3c-0.6,0-1.2-0.2-1.7-0.6c-0.6-0.5-0.9-1.1-1-1.8
					l-0.8-7.5c-0.1-0.7,0.1-1.4,0.6-2c0.4-0.4,0.8-0.7,1.3-0.9c0-0.4-0.1-0.9-0.1-1.3l-0.2-1.6c0-0.3,0-0.5-0.1-0.7
					c-0.2-2.4-0.7-7.5,3.2-10.9c6-5.9,18.7-5.9,24.7,0c3.8,3.4,3.3,8.5,3.1,10.9c0,0.3,0,0.5-0.1,0.7c-0.1,1-0.2,1.9-0.3,2.9
					c0.5,0.1,1,0.5,1.3,0.9c0.5,0.6,0.7,1.2,0.6,2l-0.8,7.6c-0.1,1.4-1.3,2.4-2.6,2.4c-0.1,1.1-0.3,2.2-0.4,3.3
					c-0.1,1.5-1.3,3.2-3,4.5c-0.1,0.9-0.2,2.4-0.3,3.8c-0.1,1.9-0.3,3.6-0.4,4.5c0,0.3-0.2,0.6-0.5,0.8l-9,6.8
					C133.3,173.1,133,173.2,132.8,173.2z M126.3,164.6l6.5,5.8l7.8-5.8c0.1-0.9,0.2-2.4,0.3-3.8c0.1-1.8,0.3-3.6,0.4-4.5
					c0.1-0.4,0.3-0.7,0.6-0.9c1.5-1,2.3-2.2,2.4-3c0.2-1.7,0.4-3.3,0.6-4.9c0.1-0.5,0.4-0.9,0.8-1c0.5-0.2,1,0,1.3,0.3
					c0.1,0.1,0.1,0.1,0.1,0.1c0.1,0,0.2-0.1,0.2-0.2l0.8-7.5c0-0.1-0.1-0.2-0.2-0.2c-0.4,0.2-1,0.2-1.4-0.1s-0.6-0.7-0.6-1.2
					c0.2-1.4,0.3-2.9,0.5-4.3c0-0.2,0-0.4,0.1-0.7c0.2-2.2,0.6-6.2-2.3-8.8c-5-4.9-16.4-4.9-21.3,0c-3,2.7-2.6,6.7-2.4,8.9
					c0,0.3,0,0.5,0.1,0.8l0.2,1.5c0.1,0.9,0.2,1.8,0.3,2.8c0.1,0.5-0.2,0.9-0.6,1.2c-0.4,0.3-0.9,0.3-1.3,0c-0.1,0-0.2,0-0.2,0
					c0,0,0,0.1,0,0.1l0.8,7.6c0,0.1,0,0.1,0.1,0.1c0,0,0.1,0,0.1,0c0,0,0.1,0,0.1-0.1c0.3-0.4,0.8-0.5,1.3-0.3
					c0.5,0.2,0.8,0.6,0.8,1c0.2,1.6,0.4,3.3,0.6,4.9c0.1,0.8,0.9,2.1,2.4,3c0.3,0.2,0.5,0.5,0.6,0.9c0.1,0.9,0.3,2.7,0.4,4.5
					C126.1,162.2,126.2,163.7,126.3,164.6z M141.8,165.2L141.8,165.2L141.8,165.2z"/>
			</g>
			<g>
				<polygon class="st4" points="137,160.5 129.9,160.5 123.6,157.3 124.7,155.1 130.5,158 137,158 				"/>
			</g>
		</g>
	</g>
	<g>
		<g>
			<polygon class="st4" points="141.3,126.3 141.3,113.5 98.4,113.5 98.4,98.4 100.9,98.4 100.9,111 143.8,111 143.8,120.2 
				153.1,111 163.3,111 163.3,71.9 149.3,71.9 149.3,69.4 165.8,69.4 165.8,113.5 154.1,113.5 			"/>
		</g>
	</g>
	<g>
		<g>
			<path class="st4" d="M82.5,116.8v-17H67.4v-60h83.4v60H99.5L82.5,116.8z M69.9,97.3H85v13.5l13.5-13.5h49.8v-55H69.9V97.3z"/>
		</g>
		<g>
			<g>
				<rect x="83.3" y="58.2" class="st4" width="51.6" height="2.5"/>
			</g>
			<g>
				<rect x="83.3" y="69.5" class="st4" width="51.6" height="2.5"/>
			</g>
			<g>
				<rect x="83.3" y="80.7" class="st4" width="51.6" height="2.5"/>
			</g>
		</g>
	</g>
</g>
<polyline class="st5" points="182.7,50.4 193.1,50.4 193.1,181 154.3,181 142.7,181 6.3,181 6.3,50.4 16.9,50.4 "/>
<g class="st0">
	<path class="st6" d="M86.2,40.1H16.8v129.5h69.4c7.5,0,13.6,6.1,13.6,13.6V53.7C99.8,46.2,93.7,40.1,86.2,40.1z"/>
	<path class="st6" d="M142,169.6h-28.6c-7.5,0-13.6,6.1-13.6,13.6V53.7c0-7.5,6.1-13.6,13.6-13.6h69.3v129.5h-28.2H142z"/>
</g>
<g class="st0">
	<g class="st3">
		<path class="st7" d="M156.5,48.6V55h9.4v-6.3c0-0.4-0.5-0.7-1-0.7h-7.3C156.9,47.9,156.5,48.2,156.5,48.6z"/>
		<polyline class="st7" points="165.9,144.4 165.9,55 156.5,55 156.5,144.4 		"/>
	</g>
	<path class="st8" d="M161.2,143.6c-1.7,0-3.3,0.2-4.7,0.7l4.7,12.2l4.7-12.2C164.4,143.9,162.9,143.6,161.2,143.6z"/>
	<g class="st3">
		<rect x="156.4" y="54.8" class="st7" width="9.5" height="8.1"/>
	</g>
	<path class="st6" d="M162.7,152.5c-0.5,0-1-0.1-1.4-0.1c-0.6,0-1.1,0-1.6,0.1l1.5,4L162.7,152.5z"/>
</g>
<g class="st0">
	<line class="st6" x1="30.7" y1="58" x2="63.1" y2="58"/>
	<line class="st6" x1="30.7" y1="73.5" x2="85.3" y2="73.5"/>
	<line class="st6" x1="30.7" y1="84.3" x2="85.3" y2="84.3"/>
	<line class="st6" x1="30.7" y1="95" x2="69.7" y2="95"/>
</g>
<g class="st0">
	<path class="st9" d="M137.9,121.6c-0.1,0-0.2,0-0.3,0c-0.1,0-0.2,0-0.2,0c-0.8,0-1.5,0-2.1-0.1c-0.6-0.1-1.2-0.1-1.7-0.2
		s-1.1-0.2-1.6-0.4s-1-0.3-1.5-0.5c0-0.6,0.2-1.1,0.3-1.7c0.2-0.6,0.3-1.1,0.5-1.6c0.8,0.3,1.7,0.5,2.6,0.7c0.9,0.2,2,0.3,3.3,0.3
		c2,0,3.6-0.4,4.6-1.2c1-0.8,1.5-1.9,1.5-3.3c0-0.7-0.1-1.3-0.3-1.8c-0.2-0.5-0.5-0.9-1-1.2c-0.4-0.3-1-0.7-1.6-1
		c-0.6-0.3-1.4-0.6-2.3-1l-1.8-0.7c-0.7-0.3-1.4-0.6-2.1-1c-0.6-0.4-1.2-0.8-1.6-1.3c-0.5-0.5-0.8-1.1-1.1-1.8
		c-0.2-0.7-0.4-1.5-0.4-2.5c0-1.9,0.6-3.5,1.7-4.7c1.2-1.2,2.8-2,5-2.3v-3.6c0.4-0.1,0.8-0.1,1.3-0.1c0.5,0,0.9,0,1.3,0.1v3.5
		c1,0,2.1,0.2,3.1,0.3c1,0.2,1.9,0.4,2.6,0.7c-0.1,1-0.4,2.1-0.8,3.1c-0.7-0.2-1.4-0.5-2.3-0.7c-0.9-0.2-1.9-0.3-3-0.3
		c-1.6,0-2.8,0.3-3.6,0.9c-0.8,0.6-1.3,1.5-1.3,2.8c0,0.6,0.1,1.1,0.3,1.6c0.2,0.4,0.6,0.8,1,1.2c0.4,0.3,1,0.6,1.6,0.9
		c0.6,0.3,1.3,0.6,2.1,0.9l1.4,0.6c0.9,0.4,1.7,0.8,2.4,1.2c0.7,0.4,1.3,0.9,1.8,1.4s0.9,1.2,1.2,1.9c0.3,0.7,0.4,1.7,0.4,2.7
		c0,2.1-0.6,3.8-1.8,5.2c-1.2,1.3-2.9,2.2-5.1,2.6v4.3c-0.2,0-0.4,0.1-0.6,0.1c-0.2,0-0.4,0-0.6,0c-0.2,0-0.4,0-0.7,0
		c-0.2,0-0.4-0.1-0.7-0.1V121.6z"/>
</g>
<path class="st5" d="M156.8,123.8c-4.4,5-10.8,8.2-18,8.2c-13.2,0-23.8-10.7-23.8-23.8s10.7-23.8,23.8-23.8c7.1,0,13.5,3.1,17.8,8"
	/>
</svg>
