<?xml version="1.0" encoding="utf-8"?>
<!-- Generator: Adobe Illustrator 20.1.0, SVG Export Plug-In . SVG Version: 6.00 Build 0)  -->
<svg version="1.1" id="Layer_1" xmlns="http://www.w3.org/2000/svg" xmlns:xlink="http://www.w3.org/1999/xlink" x="0px" y="0px"
	 viewBox="0 0 193 202.2" style="enable-background:new 0 0 193 202.2;" xml:space="preserve">
<style type="text/css">
	.st0{fill:#FFFFFF;}
</style>
<g id="Layer_2">
</g>
<g>
	<path class="st0" d="M-61.5,30.1c-1.6,2.2-3.1,4.3-4.7,6.5c-0.2,0.2-0.5,0.3-0.8,0.4c-0.1,0.1-0.3,0-0.5,0c-26.7,0-53.4,0-80.1,0
		c-0.7,0-1.2-0.2-1.7-0.7c-0.8-0.8-1.7-1.5-2.6-2.3c-0.6-0.6-1.2-0.8-2-0.8c-10.5,0-21,0-31.4,0c-0.6,0-1.1-0.2-1.6-0.6
		c-0.9-0.9-1.9-1.7-2.9-2.5c-0.4-0.3-0.9-0.5-1.4-0.5c-9.3,0-18.6,0-27.9,0c-0.3,0-0.6,0-1.1,0c0.3-0.5,0.6-0.9,0.9-1.3
		c0.8-1.1,1.6-2.2,2.3-3.3c0.3-0.5,0.7-0.6,1.3-0.6c9.9,0,19.9,0,29.8,0c12.6,0,25.2,0,37.7,0c27.1,0,54.1,0,81.2,0
		c0.7,0,1.2,0.2,1.6,0.8C-64.1,26.9-62.8,28.5-61.5,30.1z"/>
	<path class="st0" d="M-210.8,44.7c0.7-0.9,1.2-1.6,1.7-2.3c0.6-0.8,1.1-2,2-2.4c0.9-0.4,2.1-0.2,3.2-0.2c21.8,0,43.7,0,65.5,0
		c20.6,0,41.3,0,61.9,0c0.6,0,1.1,0.2,1.4,0.7c0.9,1.2,1.9,2.4,2.9,3.6c0.3,0.4,0.3,0.7,0,1.1c-1.6,2.2-3.1,4.3-4.7,6.5
		c-0.2,0.2-0.6,0.5-0.9,0.5c-20.2,0-40.4,0-60.6,0c-0.3,0-0.7-0.2-0.9-0.4c-1-0.8-2-1.7-2.9-2.6c-0.5-0.5-1-0.7-1.7-0.7
		c-10.6,0-21.1,0-31.7,0c-0.6,0-1.1-0.1-1.5-0.6c-0.5-0.5-1.2-0.9-1.7-1.5c-1.2-1.4-2.6-1.6-4.4-1.6c-8.8,0.1-17.6,0-26.4,0
		C-210,44.7-210.3,44.7-210.8,44.7z"/>
	<path class="st0" d="M-200.3,59.7c1.4-1.9,2.7-3.6,4-5.3c0.1-0.1,0.4-0.2,0.6-0.2c0.3,0,0.5,0,0.8,0c22.5,0,45.1,0,67.6,0
		c13.1,0,26.2,0,39.4,0c0.7,0,1.1,0.2,1.6,0.8c1.2,1.6,2.5,3.1,3.8,4.6c-1.2,1.7-2.4,3.4-3.7,5.1c-0.6,0.8-1,1.9-1.8,2.3
		c-0.8,0.4-2,0.1-3,0.1c-11.8,0-23.6,0-35.4,0c-0.6,0-1.1-0.2-1.5-0.6c-0.9-0.8-1.8-1.6-2.7-2.4c-0.5-0.5-1.1-0.7-1.8-0.7
		c-10.2,0-20.5,0-30.7,0c-1.3,0-2.4-0.2-3.2-1.2c-1.7-2.1-3.9-2.6-6.6-2.5c-8.7,0.2-17.4,0.1-26.1,0.1
		C-199.4,59.7-199.7,59.7-200.3,59.7z"/>
	<path class="st0" d="M-92.8,73.8c-1.8,2.4-3.5,4.8-5.2,7.2c-0.1,0.2-0.5,0.4-0.7,0.4c-5.5,0-11,0-16.5,0c-0.3,0-0.7-0.2-0.9-0.4
		c-1-0.9-2-1.8-3.1-2.7c-0.4-0.3-0.9-0.5-1.4-0.5c-10.6,0-21.2,0-31.8,0c-0.6,0-1.1-0.1-1.5-0.6c-0.9-0.9-2-1.7-2.9-2.5
		c-0.4-0.4-0.9-0.5-1.5-0.5c-10.1,0-20.2,0-30.3,0c-0.3,0-0.6,0-1.1,0c0.5-0.7,0.9-1.3,1.3-1.8c0.6-0.7,1.2-1.5,1.6-2.2
		c0.4-0.7,1-0.9,1.8-0.9c23.2,0,46.3,0,69.5,0c6,0,12,0,18,0c0.6,0,1,0.2,1.4,0.7C-95.1,71.1-94,72.4-92.8,73.8z"/>
	<path class="st0" d="M-178.9,88.4c1.2-1.6,2.2-3,3.2-4.3c0.1-0.2,0.4-0.3,0.6-0.3c0.3,0,0.7,0,1,0c22.9,0,45.9,0,68.8,0
		c0.6,0,1,0.1,1.4,0.6c0.5,0.7,1.2,1.4,1.8,2.2c-1.8,2.5-3.6,5.1-5.5,7.7c-0.6-0.5-1.2-1-1.8-1.6c-0.5-0.5-1.1-0.7-1.8-0.7
		c-10.4,0-20.8,0-31.3,0c-0.9,0-1.6-0.2-2.3-0.8c-1-1-2-2.2-3.3-2.7c-1.3-0.5-2.8-0.2-4.3-0.2c-8.5,0-17.1,0-25.6,0
		C-178.1,88.4-178.4,88.4-178.9,88.4z"/>
	<path class="st0" d="M-168.7,102.7c1.3-1.7,2.4-3.3,3.7-4.9c0.2-0.2,0.6-0.3,0.9-0.3c6,0,11.9,0,17.9,0c10,0,19.9,0,29.9,0
		c0.6,0,1,0.1,1.3,0.6c0.7,0.9,1.4,1.7,2.1,2.5c0.3,0.4,0.3,0.6,0,1c-1,1.4-2,2.8-3,4.2c-0.2,0.2-0.6,0.5-0.9,0.5
		c-5.4,0-10.7,0-16.1,0c-0.3,0-0.7-0.2-0.9-0.4c-1-0.9-2.1-1.8-3.1-2.7c-0.4-0.4-0.9-0.5-1.5-0.5c-9.7,0-19.5,0-29.2,0
		C-167.9,102.7-168.2,102.7-168.7,102.7z"/>
	<path class="st0" d="M-125.6,119.2c-0.3-0.2-0.5-0.3-0.7-0.4c-1.3-1.3-2.9-1.5-4.6-1.5c-8.8,0.1-17.6,0-26.3,0c-0.3,0-0.6,0-1.1,0
		c1.2-1.6,2.3-3.1,3.4-4.5c0.1-0.1,0.4-0.2,0.7-0.2c9.6,0,19.1,0,28.7,0c0.2,0,0.4,0,0.5,0.1c0.7,0.8,1.4,1.7,2.1,2.5
		c0.1,0.1,0,0.4-0.1,0.5C-123.9,116.9-124.7,118-125.6,119.2z"/>
	<path class="st0" d="M-133.6,130.4c-5.4,0-10.6,0-16,0c0.8-1.1,1.6-2,2.2-3.1c0.7-1.3,1.7-1.7,3.2-1.6c2,0.1,4.1,0,6.1,0.1
		c0.4,0,0.9,0.3,1.1,0.6C-135.8,127.7-134.8,129-133.6,130.4z"/>
</g>
<g>
	<path class="st0" d="M-227.1,168.2c-0.7-0.6-1.4-1-1.9-1.6c-1.9-2.3-3.7-4.6-5.5-7c-0.2-0.2-0.4-0.5-0.8-0.6c0,1.3,0,2.6,0,3.9
		c0,0.9-0.1,1.8,0,2.6c0.1,0.6,0.3,1.3,0.4,1.9c-0.6,0-1.4,0-2.3,0c0.9-0.9,0.7-2,0.8-3c0-1.9,0-3.8,0-5.7c0-0.8,0-1.7-0.8-2.4
		c0.6,0,1.1,0,1.6,0c0.5,0,0.8,0.1,1.1,0.6c2,2.6,4.1,5.2,6.4,7.8c0-1.4,0.1-2.8,0-4.2c-0.1-1.4,0.5-2.8-0.7-4.1c0.9,0,1.7,0,2.6,0
		c-0.9,0.9-0.7,2-0.7,3.1c0,2.8,0,5.6,0,8.3C-227,167.8-227,167.9-227.1,168.2z"/>
	<path class="st0" d="M-131.3,162.2c1.7,1.9,3.3,3.6,4.8,5.3c-1.2,0.1-2.5,0.1-3.5-1.3c-1-1.5-2.1-2.9-3.3-4.3
		c0.7-0.3,1.2-0.4,1.7-0.7c1.1-0.6,1.6-1.7,1.1-2.7c-0.5-0.9-2-1.4-2.9-1c-0.1,0.1-0.3,0.3-0.3,0.5c0,2.7,0,5.5,0,8.2
		c0,0.4,0.3,0.9,0.4,1.3c-0.8,0-1.7,0-2.4,0c0.1-0.8,0.2-1.6,0.3-2.4c0-2.3,0-4.6,0-6.9c0-0.6-0.2-1.2-0.3-1.8c1.4,0,3-0.1,4.6,0
		c1.4,0.1,2.3,1,2.5,2.1c0.2,1.3-0.5,2.5-1.8,3.1C-130.6,161.8-130.8,161.9-131.3,162.2z"/>
	<path class="st0" d="M-168,176.8c-0.2,0.6-0.3,1.1-0.5,1.7c-0.9-0.5-1.7-0.6-3.1-0.4c0,0.3,0,0.6,0,0.9c0,2.3,0,4.6,0,6.9
		c0,0.7,0.3,1.4,0.4,2.1c-0.7,0-1.7,0-2.5,0c0.1-0.7,0.3-1.4,0.3-2.1c0-2.3,0-4.7,0-7c0-0.6-0.2-0.9-0.8-0.8
		c-0.9,0.1-1.7,0.2-2.7,0.3c0.1-0.4,0.3-0.9,0.4-1.5C-173.6,176.8-170.8,176.8-168,176.8z"/>
	<path class="st0" d="M-195.2,159.3c2.5,0,4.4,1.8,4.4,4.2c0,2.4-2.1,4.3-4.6,4.3c-2.6,0-4.4-1.9-4.4-4.4
		C-199.7,161.1-197.7,159.3-195.2,159.3z M-192.2,163.7c0-2-1.4-3.6-3.1-3.6c-1.8,0-3.2,1.5-3.1,3.3c0,1.9,1.4,3.5,3.2,3.5
		C-193.5,166.9-192.2,165.6-192.2,163.7z"/>
	<path class="st0" d="M-117.4,188.4c-0.5-0.5-1.1-0.9-1.5-1.4c-1.4-1.7-2.7-3.4-4.2-5.1c0,2-0.3,4,0.2,6c-0.4,0-0.9,0-1.5,0
		c0.5-1.1,0.5-7-0.1-8c0.9-0.2,1.6-0.1,2.2,0.8c1.1,1.6,2.4,3.1,3.6,4.6c0.1,0.2,0.3,0.4,0.5,0.5c-0.1-2,0.4-4-0.2-6
		c0.5,0,1,0,1.4,0c-0.1,0.7-0.2,1.4-0.2,2.1c0,2,0,4.1,0,6.1C-117.3,188.3-117.4,188.4-117.4,188.4z"/>
	<path class="st0" d="M-106.8,163.5c0-2.4,2-4.2,4.6-4.2c2.5,0,4.4,1.8,4.4,4.1c0,2.4-2,4.3-4.5,4.3
		C-104.9,167.7-106.8,165.9-106.8,163.5z M-99.2,163.7c0-2-1.3-3.6-3.1-3.6c-1.8,0-3.2,1.4-3.2,3.2c0,1.9,1.4,3.5,3.1,3.5
		C-100.6,166.9-99.3,165.6-99.2,163.7z"/>
	<path class="st0" d="M-51.9,167.6c0.5-1.2,0.5-7.2,0-8.2c1.3,0.1,2.6,0,3.9,0.2c2.1,0.3,3.4,1.7,3.4,3.6c0.1,2.1-1.1,3.8-3.2,4.2
		C-49.2,167.6-50.5,167.5-51.9,167.6z M-49.5,166.7c1.9,0,3.2-0.9,3.5-2.3c0.5-2.5-1-4.2-3.6-4c-0.5,0-0.8,0.2-0.7,0.8
		c0,1.6,0.1,3.1,0,4.7C-50.4,166.5-50.1,166.8-49.5,166.7z"/>
	<path class="st0" d="M-180.8,167.9c-0.5-0.5-1.1-0.9-1.5-1.4c-1.4-1.7-2.7-3.4-4.2-5.1c0,2-0.4,4,0.2,6c-0.5,0-1,0-1.4,0
		c0.3-2.7,0.3-5.3,0-8c0.8-0.2,1.4,0.1,2,0.9c1.3,1.8,2.7,3.4,4.1,5.1c0-2,0.4-4-0.2-6c0.4,0,1,0,1.4,0c-0.1,0.6-0.3,1.2-0.3,1.8
		c0,2.1,0,4.3,0,6.4C-180.7,167.8-180.8,167.9-180.8,167.9z"/>
	<path class="st0" d="M-138.9,188c-0.5,0-1,0-1.6,0c0.6-1.3,0.6-7,0-8c1-0.2,1.6,0,2.2,0.8c1.3,1.8,2.7,3.4,4.2,5.1
		c-0.1-2,0.5-4-0.3-6c0.5,0,1,0,1.5,0c-0.1,0.7-0.2,1.4-0.3,2.1c0,2,0,4.1-0.2,6.3c-0.5-0.4-1-0.7-1.4-1.2c-1.2-1.5-2.4-3-3.6-4.5
		c-0.2-0.3-0.4-0.5-0.7-0.7C-139.1,183.9-139.5,185.9-138.9,188z"/>
	<path class="st0" d="M-83.2,161.3c-0.3,2.1-0.2,5.3,0.3,6.2c-0.6,0-1.1,0-1.7,0c0.6-1.1,0.6-6.9,0-8c1-0.2,1.6,0,2.2,0.9
		c1.3,1.8,2.7,3.4,4.1,5.1c0-2,0.4-4-0.2-6c0.5,0,1,0,1.4,0c-0.1,0.6-0.2,1.2-0.3,1.9c0,2.1,0,4.3,0,6.4c-0.1,0.1-0.1,0.1-0.2,0.2
		c-0.5-0.4-1-0.8-1.5-1.3c-1.2-1.5-2.4-3-3.6-4.5C-82.7,161.9-82.9,161.7-83.2,161.3z"/>
	<path class="st0" d="M-89,163.5c0.6,0,1,0,1.5,0c0,1.3,0,2.6,0,3.9c-1.6,0.4-3.1,0.6-4.7,0.1c-1.9-0.5-3-1.9-3.1-3.7
		c-0.1-2,1-3.5,2.9-4.1c1.3-0.4,2.6-0.4,4-0.1c0,0.4,0,0.8,0,1c-0.9-0.1-1.8-0.4-2.7-0.3c-1.8,0.2-2.8,1.4-2.8,3.1
		c0,1.7,1.1,3.2,2.8,3.4c0.8,0.1,1.6-0.1,2.4-0.2c0-0.9-0.1-1.9-0.1-2.8C-88.9,163.7-89,163.6-89,163.5z"/>
	<path class="st0" d="M-107.7,183.9c0.5,0,1,0,1.5,0c0,0.7,0,1.3,0,2c0,0.6,0,1.2,0,1.9c-1.7,0.4-3.3,0.6-4.9,0.1
		c-1.7-0.5-2.8-1.9-2.9-3.6c-0.1-2,0.8-3.4,2.6-4.1c1.4-0.6,2.8-0.6,4.3-0.2c0,0.4,0,0.7,0,0.9c-0.9-0.1-1.9-0.3-2.8-0.2
		c-1.7,0.2-2.8,1.5-2.8,3.2c0,1.6,1.3,3.2,2.9,3.4c0.8,0.1,1.5-0.1,2.3-0.2c0-0.9,0-1.8,0-2.7C-107.6,184.3-107.7,184.1-107.7,183.9
		z"/>
	<path class="st0" d="M-161.7,184.2c1.2,1.3,2.3,2.6,3.3,3.8c-0.6,0.2-1.5,0.1-2-0.4c-0.9-1.1-1.8-2.3-2.7-3.5
		c0.5-0.2,0.9-0.3,1.2-0.5c0.8-0.4,1.1-1.2,0.8-1.9c-0.3-0.7-1.3-1.1-2-0.8c-0.2,0.1-0.3,0.4-0.3,0.5c0,1.9,0,3.7,0,5.6
		c0,0.4,0.2,0.7,0.3,1.1c-0.6,0-1.1,0-1.6,0c0.3-2.7,0.3-5.3,0-7.9c1,0,2.1-0.1,3.2,0c1.1,0.1,1.7,0.7,1.8,1.6
		c0.1,0.9-0.3,1.7-1.3,2.2C-161.2,183.9-161.4,184-161.7,184.2z"/>
	<path class="st0" d="M-219.6,159.5c1.6-0.1,1.6-0.1,2.2,1.3c0.7,1.7,1.3,3.3,2,5c0.2,0.6,0.6,1.1,0.9,1.7c-0.6,0-1.2,0-1.6,0
		c-0.3-1-0.7-1.9-1-2.8c0-0.1-0.2-0.2-0.2-0.2c-0.9,0-1.8,0-2.7,0c-0.1,0-0.2,0.1-0.2,0.1c-0.3,0.9-1,1.8-0.7,2.9
		c-0.5,0-1.1,0-1.7,0C-221.6,166.1-219.4,160.3-219.6,159.5z M-217.5,163.6c-0.4-1-0.8-1.9-1.2-3.1c-0.4,1.2-0.8,2.1-1.2,3.1
		C-219.1,163.6-218.4,163.6-217.5,163.6z"/>
	<path class="st0" d="M-169.3,167.5c-0.6,0-1.2,0-1.6,0c-0.4-1-0.7-1.9-1-2.8c0-0.1-0.3-0.2-0.5-0.2c-0.3,0-0.7-0.1-1,0
		c-0.7,0.1-1.7-0.5-2,0.8c-0.2,0.7-0.4,1.5-0.7,2.3c-0.3,0-0.8,0-1.3,0c1.2-2.6,2.4-5.2,3.2-8c1.4-0.1,1.4-0.1,2,1.3
		c0.6,1.6,1.3,3.2,1.9,4.8C-169.9,166.2-169.6,166.8-169.3,167.5z M-172.3,163.5c-0.4-1-0.8-1.9-1.2-3.1c-0.4,1.1-0.8,2.1-1.2,3.1
		C-173.8,163.5-173.2,163.5-172.3,163.5z"/>
	<path class="st0" d="M-155.4,188c-0.3,0-0.8,0-1.2,0c1.2-2.6,2.3-5.2,3.1-7.9c-0.1,0-0.1-0.1-0.2-0.1c0.1,0,0.2,0,0.2,0
		c1.4,0,1.4,0,2,1.3c0.7,1.7,1.4,3.5,2.1,5.2c0.2,0.5,0.5,0.9,0.8,1.5c-0.6,0-1.2,0-1.6,0c-0.3-1-0.7-1.9-1-2.8
		c0-0.1-0.1-0.2-0.2-0.2c-1,0-1.9,0-2.9,0c-0.1,0-0.2,0.1-0.2,0.1C-154.7,186-155,186.9-155.4,188z M-152.7,181.2
		c-0.1,0-0.1,0-0.2,0c-0.4,0.9-0.7,1.9-1.1,2.9c0.9,0,1.6,0,2.4,0C-152,183.1-152.4,182.1-152.7,181.2z"/>
	<path class="st0" d="M-64,160.5c-1-0.1-1.8-0.2-2.6-0.2c-0.3,0-0.8,0.4-0.8,0.7c-0.1,0.3,0.2,0.9,0.4,1.1c0.6,0.5,1.4,0.8,2.1,1.1
		c0.9,0.5,1.7,0.9,1.6,2.1c-0.1,1-0.9,2-2.1,2.2c-0.9,0.2-1.9,0.1-2.9,0c-0.8-0.1-0.5-0.9-0.8-1.3c0.8,0.2,1.5,0.5,2.2,0.7
		c0.4,0.1,0.9,0,1.2-0.2c0.4-0.2,0.8-0.6,0.9-1c0.1-0.3-0.3-0.9-0.6-1.1c-0.5-0.4-1.1-0.5-1.6-0.8c-0.5-0.3-1.1-0.6-1.5-1
		c-0.8-0.8-0.7-2.2,0.3-2.8c1.2-0.8,2.5-0.8,3.8-0.4C-64.2,159.6-64.1,160.2-64,160.5z"/>
	<path class="st0" d="M-122.5,162.7c0.7,0,1.3,0,1.9,0c0,0.3,0,0.6,0,0.9c-0.6,0-1.2-0.1-1.9-0.1c0,1,0,2,0,2.9
		c1.2,0.4,2.4,0.3,3.6-0.3c-0.1,1.3-0.2,1.4-1.5,1.4c-1.2,0-2.4,0-3.6,0c0.3-2.7,0.3-5.4,0-8.1c1.2,0,2.6,0,4.1,0c0,0.4,0,0.7,0,1
		c-0.9-0.1-1.7-0.1-2.6-0.2C-122.5,161.2-122.5,161.9-122.5,162.7z"/>
	<path class="st0" d="M-109.8,160.8c-2.3-0.8-3.6-0.6-4.5,0.6c-0.8,1.1-0.8,2.9,0.1,4.1c1,1.4,2.3,1.6,4.9,0.7
		c-0.1,0.7-0.3,1.4-1.1,1.4c-0.9,0-1.9,0.1-2.8-0.1c-2.1-0.5-3.3-2.3-3-4.5c0.3-2.2,1.8-3.6,4-3.7c0.5,0,1,0,1.5,0.1
		C-109.7,159.6-109.7,159.6-109.8,160.8z"/>
	<path class="st0" d="M-54.9,166.2c-0.3,1.3-0.3,1.3-1.5,1.3c-1.2,0-2.4,0-3.6,0c0.3-2.7,0.3-5.4,0-8c1.2,0,2.6,0,4.1,0
		c0,0.4,0,0.7,0,1c-0.7,0-1.5-0.1-2.2-0.1c-0.2,0-0.5,0.3-0.5,0.5c-0.1,0.6,0,1.2,0,1.9c0.7,0,1.3,0,2,0c0,0.4,0,0.7,0,0.9
		c-0.1,0-0.1,0-0.2,0c-0.6,0-1.6-0.1-1.7,0c-0.1,0.8-0.1,1.7-0.1,2.6c0,0.1,0.3,0.3,0.5,0.3c1,0.1,2,0.2,2.9-0.3
		C-55.1,166.2-55,166.2-54.9,166.2z"/>
	<path class="st0" d="M-146.3,167.5c-0.6,0-1.3,0-1.8,0c0.3-1.7,0.5-3.4-0.6-4.9c-0.8-1-1.4-2.1-2-3.1c0.9-0.2,1.6,0.1,2.1,1
		c0.4,0.8,0.9,1.6,1.6,2.6c0.5-1.3,1.9-2,1.6-3.6c0.5,0,1.1,0,1.8,0c-0.4,0.6-0.7,1.1-1.1,1.7c-0.3,0.5-0.6,1.1-1,1.5
		c-1.1,1.1-1,2.5-0.9,3.8C-146.7,166.8-146.5,167.1-146.3,167.5z"/>
	<path class="st0" d="M-210.7,160.3c-0.9,0.1-1.6,0.1-2.4,0.2c0-1,0.1-1,1.1-1c1.7,0,3.3,0,5,0c-0.1,0.4-0.2,0.8-0.2,1
		c-0.7-0.1-1.5-0.1-2.3-0.2c0.1,2.5-0.3,4.8,0.3,7.2c-0.5,0-1.1,0-1.6,0C-210.6,165.1-210.8,162.8-210.7,160.3z"/>
	<path class="st0" d="M-164.3,159.5c-0.1,0.5-0.2,0.9-0.2,1.3c0,1.7,0,3.4,0,5.1c0,0.6,0.2,0.8,0.7,0.8c1-0.1,2-0.2,2.9-0.2
		c-0.1,1-0.3,1.2-1.4,1.2c-1.2,0-2.4,0-3.6,0c0.2-2.7,0.2-5.4,0-8.1C-165.5,159.5-164.9,159.5-164.3,159.5z"/>
	<path class="st0" d="M-152.5,166c-0.5,1.5-0.5,1.5-1.8,1.5c-1.1,0-2.3,0-3.3,0c0.1-2.7,0.2-5.4,0-8.1c0.4,0,1,0,1.5,0
		c-0.1,0.6-0.2,1.2-0.2,1.8c0,1.6,0,3.1,0,4.7c0,0.4,0.1,0.6,0.6,0.7C-154.6,166.7-153.5,166.8-152.5,166z"/>
	<path class="st0" d="M-145.4,188c0.2-2.7,0.3-5.3,0-8c0.5,0,1.1,0,1.5,0c-0.2,2.6-0.2,5.3,0,8C-144.4,188-144.9,188-145.4,188z"/>
	<path class="st0" d="M-127.9,180c-0.3,2.7-0.3,5.3,0,8c-0.4,0-1,0-1.5,0c0.3-2.7,0.3-5.3,0-8C-129,180-128.4,180-127.9,180z"/>
	<path class="st0" d="M-73.6,159.5c0.5,0,1.1,0,1.7,0c-0.4,1.1-0.5,6.9,0,8c-0.6,0-1.2,0-1.7,0C-73.3,164.8-73.3,162.2-73.6,159.5z"
		/>
	<path class="st0" d="M-202.9,159.5c-0.3,2.7-0.3,5.3,0,8c-0.5,0-1,0-1.5,0c0.2-2.7,0.3-5.4,0-8
		C-203.9,159.5-203.3,159.5-202.9,159.5z"/>
</g>
</svg>
