<?xml version="1.0" encoding="utf-8"?>
<!-- Generator: Adobe Illustrator 20.1.0, SVG Export Plug-In . SVG Version: 6.00 Build 0)  -->
<svg version="1.1" id="Layer_1" xmlns="http://www.w3.org/2000/svg" xmlns:xlink="http://www.w3.org/1999/xlink" x="0px" y="0px"
	 viewBox="0 0 200 200" style="enable-background:new 0 0 200 200;" xml:space="preserve">
<style type="text/css">
	.st0{fill:none;}
	.st1{fill:#FFFFFF;}
	.st2{display:none;}
	.st3{display:inline;fill:none;stroke:#FFFFFF;stroke-width:2.5;stroke-linecap:round;stroke-linejoin:round;}
	.st4{display:inline;fill:none;stroke:#FFFFFF;stroke-width:2.5;stroke-linejoin:round;}
	.st5{display:inline;}
	.st6{fill:none;stroke:#FFFFFF;stroke-width:2.5;stroke-miterlimit:10;}
	.st7{fill:none;stroke:#FFFFFF;stroke-width:2.5;stroke-linecap:round;stroke-linejoin:round;stroke-miterlimit:10;}
	.st8{fill:none;stroke:#FFFFFF;stroke-width:2.5;}
	.st9{display:none;fill:none;stroke:#FFFFFF;stroke-width:2.5;stroke-miterlimit:10;}
	.st10{display:inline;fill:none;stroke:#FFFFFF;stroke-width:2.5;stroke-miterlimit:10;}
	
		.st11{display:inline;fill:none;stroke:#FFFFFF;stroke-width:2.5;stroke-linecap:round;stroke-linejoin:round;stroke-miterlimit:10;}
	.st12{display:inline;fill:#FFFFFF;}
</style>
<g>
</g>
<g>
	<line class="st0" x1="32.4" y1="57.5" x2="20.6" y2="57.5"/>
</g>
<line class="st0" x1="0" y1="0" x2="15.4" y2="0"/>
<g>
</g>
<g>
	<g>
		<g>
			<path class="st1" d="M183.8,142.6H15.8v-98c0-3.2,2.6-5.8,5.8-5.8H178c3.2,0,5.8,2.6,5.8,5.8V142.6z M18.3,140.1h162.9V44.6
				c0-1.8-1.5-3.3-3.3-3.3H21.6c-1.8,0-3.3,1.5-3.3,3.3V140.1z"/>
		</g>
		<g>
			<path class="st1" d="M178.4,162.1h-156c-3.3,0-6.7-3.5-6.7-6.9V140h168.2v15.4C183.9,158.7,181.8,162.1,178.4,162.1z M18.2,142.5
				v12.7c0,2.1,2.2,4.4,4.2,4.4h156c1.9,0,3-2.1,3-4.2v-12.9H18.2z"/>
		</g>
		<g>
			<path class="st1" d="M125.3,183.7c-2-0.9-3.5-1.6-4.4-2.1l-0.1-0.1c-2.1-1.2-2.6-1.8-3.3-5.4c-0.5-2.4-0.4-6.2-0.4-9.6
				c0-1.5,0-3,0-4.2l-34.3-0.2c0,1.2,0,2.7,0,4.3c0,3.4,0.1,7.2-0.4,9.7c-0.7,3.5-1.3,4.2-3.4,5.3l-0.2,0.1c-1.2,0.7-3.2,1.6-4.4,2
				l-1-2.3c1.1-0.5,3-1.3,4.1-1.9l0.2-0.1c1.4-0.8,1.6-0.9,2.1-3.6c0.4-2.2,0.4-5.9,0.3-9.1c0-2.2-0.1-4.3,0.1-5.7l0.1-1.2l39,0.2
				l0.1,1.1c0.1,1.4,0.1,3.4,0.1,5.6c0,3.2-0.1,6.9,0.3,9c0.6,2.8,0.6,2.8,2.1,3.7l0.1,0.1c0.8,0.4,2.3,1.1,4.2,2L125.3,183.7z"/>
		</g>
		<g>
			<rect x="69.2" y="181.3" class="st1" width="61.2" height="2.5"/>
		</g>
	</g>
	<g>
		<g>
			<g>
				<path class="st1" d="M93,142.2H79.4c-0.7,0-1.3-0.6-1.3-1.3V79.2c0-0.7,0.6-1.3,1.3-1.3s1.3,0.6,1.3,1.3v60.5h11.1V79.2
					c0-0.7,0.6-1.3,1.3-1.3s1.3,0.6,1.3,1.3V141C94.2,141.7,93.7,142.2,93,142.2z"/>
			</g>
		</g>
		<g>
			<path class="st1" d="M86.2,81.6c-2.5,0-4.8-0.3-7.1-1c-0.3-0.1-0.6-0.3-0.8-0.6s-0.2-0.7,0-1L85,61.4c0.2-0.5,0.6-0.8,1.2-0.8
				s1,0.3,1.2,0.8l6.8,17.6c0.1,0.3,0.1,0.7,0,1c-0.2,0.3-0.4,0.5-0.8,0.6C91.1,81.3,88.7,81.6,86.2,81.6z M81.1,78.5
				c3.3,0.8,6.9,0.8,10.2,0l-5.1-13.3L81.1,78.5z"/>
		</g>
		<g>
			<path class="st1" d="M86.1,68.9c-0.8,0-1.5-0.1-2.2-0.1l-1.7-0.1l4-10.3l4,10.3l-1.6,0.2C87.7,68.9,86.9,68.9,86.1,68.9z
				 M85.8,66.4c0.3,0,0.6,0,0.9,0l-0.4-1.1L85.8,66.4z"/>
		</g>
	</g>
	<g>
		<g>
			<path class="st1" d="M67.8,142.2H37V55.7h30.8V142.2z M39.5,139.7h25.8V58.2H39.5V139.7z"/>
		</g>
		<g>
			<rect x="53.7" y="67.7" class="st1" width="11.2" height="2.5"/>
		</g>
		<g>
			<rect x="58.8" y="79.7" class="st1" width="6" height="2.5"/>
		</g>
		<g>
			<rect x="53.7" y="91.7" class="st1" width="11.2" height="2.5"/>
		</g>
		<g>
			<rect x="58.8" y="103.7" class="st1" width="6" height="2.5"/>
		</g>
		<g>
			<rect x="53.7" y="115.7" class="st1" width="11.2" height="2.5"/>
		</g>
		<g>
			<rect x="58.8" y="127.7" class="st1" width="6" height="2.5"/>
		</g>
	</g>
	<g>
		<g>
			<rect x="117.4" y="55.7" class="st1" width="2.5" height="9.6"/>
		</g>
		<g>
			
				<rect x="104.2" y="64" transform="matrix(0.5004 -0.8658 0.8658 0.5004 -6.8898 125.6936)" class="st1" width="2.5" height="9.6"/>
		</g>
		<g>
			<rect x="101.2" y="83.1" transform="matrix(0.866 -0.5 0.5 0.866 -27.9841 64.3183)" class="st1" width="9.6" height="2.5"/>
		</g>
		<g>
			<rect x="118.5" y="86.9" class="st1" width="2.5" height="9.6"/>
		</g>
		<g>
			<rect x="127.6" y="66.6" transform="matrix(0.866 -0.5 0.5 0.866 -16.1782 75.2972)" class="st1" width="9.6" height="2.5"/>
		</g>
		<g>
			<g>
				
					<rect x="154.7" y="99.8" transform="matrix(0.707 -0.7072 0.7072 0.707 -31.7105 142.3951)" class="st1" width="2.5" height="19.3"/>
			</g>
			<g>
				<path class="st1" d="M141.1,121l-19.3-45.7l45.7,19.3l-18.4,8L141.1,121z M126.5,80l14.7,34.7l6.1-13.9l13.9-6.1L126.5,80z"/>
			</g>
		</g>
	</g>
</g>
<g>
</g>
<g class="st2">
	<path class="st3" d="M89.7,170c0,0-3.7-5.5-7.3-7.6c-0.3-0.2-0.6-0.3-0.9-0.5c0,0-0.4-0.2-0.6-0.3c-0.4-0.2-0.9-0.4-1.3-0.6
		l-0.5-0.2l-0.3-0.1l-1-0.4l-0.2,1.1l0,0.1c0,0.1-0.1,0.3-0.1,0.4l-0.1,0.2c-0.1,0.2-0.1,0.4-0.2,0.7c-0.1,0.1-0.1,0.3-0.2,0.4
		l-0.1,0.1c-0.1,0.2-0.2,0.5-0.3,0.7c-0.1,0.2-0.2,0.4-0.3,0.6c-0.1,0.2-0.3,0.4-0.4,0.7c-0.1,0.2-0.2,0.4-0.4,0.5
		c-0.1,0.2-0.3,0.4-0.5,0.6c-0.1,0.2-0.3,0.3-0.4,0.5c-0.2,0.2-0.4,0.4-0.6,0.6c-0.2,0.2-0.3,0.3-0.5,0.5c-0.2,0.2-0.4,0.4-0.6,0.6
		c-0.2,0.2-0.4,0.3-0.6,0.5c-0.2,0.2-0.5,0.3-0.7,0.5c-0.2,0.1-0.4,0.3-0.6,0.4c-0.3,0.2-0.5,0.3-0.8,0.5c-0.2,0.1-0.4,0.3-0.7,0.4
		c-0.3,0.1-0.6,0.3-0.8,0.4l-0.1,0c-0.2,0.1-0.4,0.2-0.6,0.3c-0.3,0.1-0.6,0.2-0.9,0.4l-0.1,0c-0.2,0.1-0.4,0.2-0.6,0.2
		c-0.3,0.1-0.6,0.2-1,0.3l-0.2,0.1c-0.2,0.1-0.4,0.1-0.6,0.2c-0.3,0.1-0.6,0.1-0.9,0.2l-0.4,0.1c-0.2,0-0.3,0.1-0.5,0.1
		c-0.3,0.1-0.6,0.1-0.9,0.2l-0.5,0.1c-0.2,0-0.3,0.1-0.5,0.1c-0.4,0-0.7,0.1-1.1,0.1l-0.5,0.1c-0.1,0-0.2,0-0.3,0
		c-0.7,0-1.3,0.1-2,0.1c-0.6,0-1.3,0-2-0.1c-0.1,0-0.2,0-0.4,0l-0.3,0c-0.4,0-0.9-0.1-1.3-0.1c-0.2,0-0.3,0-0.4-0.1l-0.5-0.1
		c-0.3-0.1-0.7-0.1-1-0.2c-0.2,0-0.3-0.1-0.5-0.1l-0.3-0.1c-0.3-0.1-0.7-0.2-1-0.2c-0.2-0.1-0.4-0.1-0.6-0.2l-0.3-0.1
		c-0.3-0.1-0.6-0.2-0.9-0.3c-0.2-0.1-0.4-0.2-0.6-0.2l-0.2-0.1c-0.3-0.1-0.6-0.2-0.8-0.3c-0.2-0.1-0.5-0.2-0.7-0.3
		c-0.3-0.1-0.6-0.3-0.8-0.4c-0.2-0.1-0.4-0.3-0.7-0.4c-0.3-0.2-0.5-0.3-0.8-0.5c-0.2-0.1-0.4-0.3-0.6-0.4c-0.2-0.2-0.5-0.3-0.7-0.5
		c-0.2-0.1-0.4-0.3-0.6-0.5c-0.2-0.2-0.4-0.4-0.6-0.5c-0.2-0.2-0.3-0.3-0.5-0.5c-0.2-0.2-0.4-0.4-0.6-0.6c-0.1-0.2-0.3-0.3-0.4-0.5
		c-0.2-0.2-0.3-0.4-0.5-0.7c-0.1-0.2-0.2-0.3-0.3-0.5c-0.1-0.2-0.3-0.4-0.4-0.7l-0.1-0.1c-0.1-0.2-0.2-0.3-0.2-0.5
		c-0.1-0.2-0.2-0.5-0.3-0.7l-0.1-0.1c-0.1-0.1-0.1-0.3-0.2-0.4c-0.1-0.2-0.1-0.4-0.2-0.7l0-0.2c0-0.1-0.1-0.3-0.1-0.4l0-0.1
		l-0.2-1.1l-1,0.4c-0.4,0.2-0.8,0.3-1.2,0.5l-0.1,0c-0.4,0.2-0.7,0.4-1.1,0.5l-0.5,0.2c-0.2,0.1-0.4,0.2-0.7,0.4
		c-3.6,2.1-6.4,8-6.4,8v12.3h64.2V170z"/>
	<path class="st4" d="M37.5,159.8c0.3-0.1,0.7-0.2,1-0.3c0.1,0,0.2-0.1,0.4-0.1c0.4-0.1,0.8-0.2,1.2-0.3c0.1,0,0.2-0.1,0.2-0.1
		c0.4-0.1,0.9-0.2,1.3-0.3c0,0,0.1,0,0.1,0c1.9-0.5,4-0.8,6.2-1.1c-0.1-0.6-0.1-1.1-0.1-1.7v-7.4c2.5,2,5.7,3.2,9.1,3.2
		c3.5,0,6.6-1.2,9.1-3.2v7.4c0,0.6-0.1,1.2-0.1,1.7c2.2,0.3,4.2,0.7,6.2,1.1c0,0,0,0,0.1,0c0.5,0.1,0.9,0.2,1.4,0.4
		c0.1,0,0.1,0,0.2,0c0.4,0.1,0.8,0.2,1.2,0.4c0.1,0,0.2,0.1,0.2,0.1c2.8,0.9,5.4,2,7.5,3.2c-1.9-12.5-3.7-24.9-5.6-37.4
		c-2.1-11.8-11.1-19.1-20.1-19.1c-9,0-18,7.3-20.1,19.1c-1.9,12.5-3.7,24.9-5.6,37.4c1.7-1,3.7-1.9,5.9-2.7
		C37.3,159.9,37.4,159.8,37.5,159.8z"/>
	<path class="st4" d="M65.8,157.4c0.1-0.6,0.1-1.1,0.1-1.7v-7.4c-2.5,2-5.6,3.2-9.1,3.2c-3.4,0-6.6-1.2-9.1-3.2v7.4
		c0,0.6,0.1,1.2,0.1,1.7c-4.3,0.6-8.3,1.5-11.7,2.8c0.7,7.6,9.7,13.6,20.6,13.6c11,0,20-6,20.6-13.6C74.2,159,70.2,158,65.8,157.4z"
		/>
	<path class="st4" d="M77.3,127.3c-0.1-0.7-0.2-1.4-0.3-2.1c-2.1-11.8-11.1-19.1-20.1-19.1c-9,0-18,7.3-20.1,19.1
		c-0.1,0.7-0.2,1.4-0.3,2.1c11.7,0,23.3,0,35,0"/>
	<path class="st4" d="M42.4,127.3v9.7c0,8,6.5,14.5,14.5,14.5c8,0,14.5-6.5,14.5-14.5v-9.7C61.7,127.3,52.1,127.3,42.4,127.3z"/>
	<g class="st5">
		<path class="st6" d="M124.8,160.3c-6.2,0.4-12.5,1.3-19.2,2.5c-2.9,0.6-5.2,2.6-5.2,4.4c-0.3,1.7-0.1,14,0,15.4h67
			c0.1-1.2,0.3-13.7,0-15.4c0-1.8-2.3-3.9-5.2-4.4c-7.1-1.3-13.7-2.2-20.2-2.6"/>
		<g>
			<path class="st6" d="M141.8,165.2c0.3-1.8,0.5-7.1,0.8-8.9c1.6-1.1,2.8-2.6,2.9-3.9c0.2-1.6,0.4-3.3,0.6-4.9
				c0.2,0.2,0.5,0.4,0.9,0.5c0.8,0.1,1.5-0.5,1.6-1.3l0.8-7.5c0.1-0.8-0.5-1.5-1.3-1.6c-0.3,0-0.6,0-0.8,0.2
				c0.2-1.4,0.3-2.9,0.5-4.3c0.1-2,1.1-7.2-2.7-10.6c-5.5-5.4-17.6-5.4-23,0c-3.8,3.4-2.8,8.6-2.7,10.6c0.2,1.4,0.3,2.9,0.5,4.3
				c-0.2-0.1-0.5-0.2-0.8-0.2c-0.8,0.1-1.3,0.8-1.3,1.6l0.8,7.5c0.1,0.8,0.8,1.4,1.6,1.3c0.4,0,0.7-0.2,0.9-0.5
				c0.2,1.6,0.4,3.3,0.6,4.9c0.1,1.3,1.3,2.9,2.9,3.9c0.2,1.8,0.5,7.1,0.7,8.9l7.6,6.8L141.8,165.2z"/>
			<path class="st7" d="M141.8,165.2c0.3-1.8,0.5-7.1,0.8-8.9c1.6-1.1,2.8-2.6,2.9-3.9c0.2-1.6,0.4-3.3,0.6-4.9
				c0.2,0.2,0.5,0.4,0.9,0.5c0.8,0.1,1.5-0.5,1.6-1.3l0.8-7.5c0.1-0.8-0.5-1.5-1.3-1.6c-0.3,0-0.6,0-0.8,0.2
				c0.2-1.4,0.3-2.9,0.5-4.3c0.1-2,1.1-7.2-2.7-10.6c-5.5-5.4-17.6-5.4-23,0c-3.8,3.4-2.8,8.6-2.7,10.6c0.2,1.4,0.3,2.9,0.5,4.3
				c-0.2-0.1-0.5-0.2-0.8-0.2c-0.8,0.1-1.3,0.8-1.3,1.6l0.8,7.5c0.1,0.8,0.8,1.4,1.6,1.3c0.4,0,0.7-0.2,0.9-0.5
				c0.2,1.6,0.4,3.3,0.6,4.9c0.1,1.3,1.3,2.9,2.9,3.9c0.2,1.8,0.5,7.1,0.7,8.9l7.6,6.8L141.8,165.2z"/>
			<polyline class="st6" points="137,159.2 130.2,159.2 124.2,156.2 			"/>
		</g>
	</g>
	<g class="st5">
		<polyline class="st6" points="99.6,98.4 99.6,112.2 142.6,112.2 142.6,123.3 153.6,112.2 164.5,112.2 164.5,70.6 149.3,70.6 		"/>
	</g>
	<g class="st5">
		<polygon class="st6" points="68.7,41.1 149.6,41.1 149.6,98.5 99,98.5 83.8,113.8 83.8,98.5 68.7,98.5 		"/>
		<g>
			<line class="st8" x1="134.9" y1="59.4" x2="83.3" y2="59.4"/>
			<line class="st8" x1="134.9" y1="70.7" x2="83.3" y2="70.7"/>
			<line class="st8" x1="134.9" y1="82" x2="83.3" y2="82"/>
		</g>
	</g>
</g>
<polyline class="st9" points="182.7,50.4 193.1,50.4 193.1,181 154.3,181 142.7,181 6.3,181 6.3,50.4 16.9,50.4 "/>
<g class="st2">
	<path class="st10" d="M86.2,40.1H16.8v129.5h69.4c7.5,0,13.6,6.1,13.6,13.6V53.7C99.8,46.2,93.7,40.1,86.2,40.1z"/>
	<path class="st10" d="M142,169.6h-28.6c-7.5,0-13.6,6.1-13.6,13.6V53.7c0-7.5,6.1-13.6,13.6-13.6h69.3v129.5h-28.2H142z"/>
</g>
<g class="st2">
	<g class="st5">
		<path class="st7" d="M156.5,48.6V55h9.4v-6.3c0-0.4-0.5-0.7-1-0.7h-7.3C156.9,47.9,156.5,48.2,156.5,48.6z"/>
		<polyline class="st7" points="165.9,144.4 165.9,55 156.5,55 156.5,144.4 		"/>
	</g>
	<path class="st11" d="M161.2,143.6c-1.7,0-3.3,0.2-4.7,0.7l4.7,12.2l4.7-12.2C164.4,143.9,162.9,143.6,161.2,143.6z"/>
	<g class="st5">
		<rect x="156.4" y="54.8" class="st7" width="9.5" height="8.1"/>
	</g>
	<path class="st10" d="M162.7,152.5c-0.5,0-1-0.1-1.4-0.1c-0.6,0-1.1,0-1.6,0.1l1.5,4L162.7,152.5z"/>
</g>
<g class="st2">
	<line class="st10" x1="30.7" y1="58" x2="63.1" y2="58"/>
	<line class="st10" x1="30.7" y1="73.5" x2="85.3" y2="73.5"/>
	<line class="st10" x1="30.7" y1="84.3" x2="85.3" y2="84.3"/>
	<line class="st10" x1="30.7" y1="95" x2="69.7" y2="95"/>
</g>
<g class="st2">
	<path class="st12" d="M137.9,121.6c-0.1,0-0.2,0-0.3,0c-0.1,0-0.2,0-0.2,0c-0.8,0-1.5,0-2.1-0.1c-0.6-0.1-1.2-0.1-1.7-0.2
		s-1.1-0.2-1.6-0.4s-1-0.3-1.5-0.5c0-0.6,0.2-1.1,0.3-1.7c0.2-0.6,0.3-1.1,0.5-1.6c0.8,0.3,1.7,0.5,2.6,0.7c0.9,0.2,2,0.3,3.3,0.3
		c2,0,3.6-0.4,4.6-1.2c1-0.8,1.5-1.9,1.5-3.3c0-0.7-0.1-1.3-0.3-1.8c-0.2-0.5-0.5-0.9-1-1.2c-0.4-0.3-1-0.7-1.6-1
		c-0.6-0.3-1.4-0.6-2.3-1l-1.8-0.7c-0.7-0.3-1.4-0.6-2.1-1c-0.6-0.4-1.2-0.8-1.6-1.3c-0.5-0.5-0.8-1.1-1.1-1.8
		c-0.2-0.7-0.4-1.5-0.4-2.5c0-1.9,0.6-3.5,1.7-4.7c1.2-1.2,2.8-2,5-2.3v-3.6c0.4-0.1,0.8-0.1,1.3-0.1c0.5,0,0.9,0,1.3,0.1v3.5
		c1,0,2.1,0.2,3.1,0.3c1,0.2,1.9,0.4,2.6,0.7c-0.1,1-0.4,2.1-0.8,3.1c-0.7-0.2-1.4-0.5-2.3-0.7c-0.9-0.2-1.9-0.3-3-0.3
		c-1.6,0-2.8,0.3-3.6,0.9c-0.8,0.6-1.3,1.5-1.3,2.8c0,0.6,0.1,1.1,0.3,1.6c0.2,0.4,0.6,0.8,1,1.2c0.4,0.3,1,0.6,1.6,0.9
		c0.6,0.3,1.3,0.6,2.1,0.9l1.4,0.6c0.9,0.4,1.7,0.8,2.4,1.2c0.7,0.4,1.3,0.9,1.8,1.4s0.9,1.2,1.2,1.9c0.3,0.7,0.4,1.7,0.4,2.7
		c0,2.1-0.6,3.8-1.8,5.2c-1.2,1.3-2.9,2.2-5.1,2.6v4.3c-0.2,0-0.4,0.1-0.6,0.1c-0.2,0-0.4,0-0.6,0c-0.2,0-0.4,0-0.7,0
		c-0.2,0-0.4-0.1-0.7-0.1V121.6z"/>
</g>
<path class="st9" d="M156.8,123.8c-4.4,5-10.8,8.2-18,8.2c-13.2,0-23.8-10.7-23.8-23.8s10.7-23.8,23.8-23.8c7.1,0,13.5,3.1,17.8,8"
	/>
</svg>
